<svg xmlns="http://www.w3.org/2000/svg" viewBox="0 0 19.3 9.3" style="enable-background:new 0 0 19.3 9.3" xml:space="preserve" fill="#fff"><path d="m10 5.6 1.8 1.8L10 9.2V7.9h-.1c-.7 0-1.3 0-2-.1-1.7.1-3.3-.2-4.8-.6-.8-.2-1.5-.5-2.1-.9-.3-.2-.5-.3-.7-.6-.4-.5-.4-1 0-1.5.3-.3.6-.6 1-.8.7-.4 1.5-.6 2.3-.8.1 0 .1 0 .2-.1v.4s-.1 0-.1.1c-.3.2-.7.3-1.1.4-.4.2-.8.4-1.1.7-.2.2-.3.4-.3.7 0 .3.2.5.4.6.4.3.8.5 1.2.7.7.2 1.4.4 2.2.5.8.1 1.5.2 2.3.3.6.1 1.3.1 2 .1h.7V5.6zM15 2.7c0 .4-.1.9-.3 1.4-.3.7-1 1-1.7.9-.8-.1-1.3-.5-1.5-1.2-.3-.8-.3-1.6 0-2.4.2-.5.6-1 1.2-1.1.8-.2 1.8.1 2.1 1.2.1.4.2.7.2 1.2zm-1.3-.1c0-.1 0-.3-.1-.5 0-.2-.1-.4-.3-.6-.1-.2-.3-.2-.5 0-.1.1-.1.2-.2.3-.2.6-.2 1.2 0 1.8 0 .1.1.2.2.3.1.1.3.1.4 0 .1-.1.1-.2.2-.3.3-.3.3-.6.3-1zM8.8 2.1c.3-.2.6-.3 1-.3.7 0 1.3.6 1.3 1.3.1 1-.6 1.7-1.6 1.8-.5.1-.9 0-1.3-.4-.4-.3-.5-.7-.6-1.1-.1-.7 0-1.4.2-2C8.2.5 9 .3 9.7.4c.4 0 .7.2 1 .4 0 0 .1 0 .1.1l.1.1c-.1.3-.3.6-.4.8-.1 0-.1-.1-.2-.1-.1-.3-.3-.3-.6-.4-.4 0-.7.2-.9.6v.2zm1.1 1.3v-.2c-.1-.3-.3-.5-.6-.4-.2.1-.4.2-.5.3v.1c0 .2.1.3.2.5s.3.3.6.2c.2-.1.3-.3.3-.5z"/><path d="M12.6 7.9v-1c.2 0 .5-.1.7-.1 1.1-.1 2.2-.4 3.3-.8.4-.2.8-.3 1.1-.6.2-.2.4-.4.4-.6 0-.3-.1-.5-.3-.7-.3-.3-.7-.5-1-.7-.3-.1-.7-.3-1.1-.4v-.4c.2.1.4.1.5.2.8.2 1.5.5 2.1.8.4.2.7.5.9.8.2.3.2.7 0 1-.2.4-.5.6-.9.8-.6.5-1.3.8-1.9 1-1 .3-1.9.5-2.9.6-.3 0-.6 0-.9.1.1 0 0 0 0 0zM6.8 2.5c.2.1.3.3.4.5.3.6.1 1.3-.5 1.6-.7.5-1.7.5-2.5-.1 0-.1-.1-.2-.2-.2l.7-.7c.1.1.2.1.2.2.3.1.5.2.8.2.3-.1.5-.4.3-.7 0-.2-.2-.3-.4-.3h-.5v-.8h.7c.2-.1.3-.2.3-.4s-.1-.4-.2-.5c-.2-.1-.5-.1-.7 0l-.4.4c-.2-.3-.4-.5-.6-.8.2-.1.3-.2.5-.3.7-.4 1.3-.4 2 0 .6.3.7 1 .5 1.4-.1.2-.2.3-.4.5 0-.1 0 0 0 0zM15.1.8c0-.5.4-.8.8-.8.5 0 .8.4.8.8 0 .5-.4.8-.8.8-.4.1-.8-.3-.8-.8zm.8.5c.2 0 .4-.2.4-.4s-.2-.4-.4-.4-.4.2-.4.4.2.4.4.4z"/></svg>