<svg xmlns="http://www.w3.org/2000/svg" viewBox="0 0 21.5 19.3" style="enable-background:new 0 0 21.5 19.3" xml:space="preserve" fill="#001417"><path d="M8.1 10.7H1.2c-.7 0-1.2-.4-1.2-1s.4-1.1 1-1.1H14.9c.2 0 .3 0 .4-.2.7-1.5 2.3-2.3 3.9-1.8 1.5.5 2.5 2.1 2.2 3.6-.3 1.7-1.7 2.8-3.4 2.7-1.3-.1-2.2-.7-2.7-1.9-.1-.2-.2-.2-.4-.2-2.2-.1-4.5-.1-6.8-.1zm10.2 0c.6 0 1.1-.5 1.1-1.1 0-.6-.5-1.1-1.1-1.1-.6 0-1.1.5-1.1 1.1 0 .7.5 1.1 1.1 1.1zM14.5 4.3H8.6c-.2 0-.3 0-.4.2-.5 1.2-1.5 1.9-2.8 1.9-1.4 0-2.4-.7-3-1.9 0-.2-.1-.2-.3-.2h-1c-.6 0-1-.5-1-1.1 0-.6.4-1.1 1-1.1h1.1c.1 0 .2 0 .3-.2C3 .7 4 0 5.4 0s2.4.7 3 1.9c.1.2.2.2.3.2h12.1c.5.1.8.7.8 1.2-.1.5-.5.9-1.1.9h-5c-.4.1-.7.1-1 .1zm-9.1 0c.6 0 1.1-.5 1.1-1.1 0-.6-.5-1.1-1.1-1.1-.6 0-1.1.5-1.1 1.1 0 .6.5 1.1 1.1 1.1zM16.7 17.2H13c-.2 0-.3.1-.3.2-.6 1.2-1.6 1.9-3 1.9s-2.3-.7-2.9-1.9c-.1-.2-.2-.2-.3-.2H1.2c-.7 0-1.1-.4-1.1-1s.4-1.1 1.1-1.1h5.3c.2 0 .2 0 .3-.2.6-1.2 1.6-1.9 2.9-1.9 1.4 0 2.4.7 3 1.9 0 .1.1.1.3.1h7.8c.5.1.8.6.8 1.2-.1.5-.5.9-1 .9-1.4.1-2.6.1-3.9.1zm-7 0c.6 0 1.1-.5 1.1-1.1 0-.6-.5-1.1-1.1-1.1-.6 0-1.1.5-1.1 1.1 0 .6.5 1.1 1.1 1.1z"/></svg>