<svg xmlns="http://www.w3.org/2000/svg" xml:space="preserve" fill="#001417" style="enable-background:new 0 0 173.4 149.4" viewBox="0 0 173.4 149.4"><path d="M173.3 26.4c0-6.4-3.4-9.7-9.7-9.7h-12.5c0-.2-.1-.4-.1-.6-.2-1.1-.3-2.1-.6-3.1-1.6-6.5-5.6-10.6-11.7-12.2-3.8-1-7.9-1-12.5-.1-8.1 1.6-16 4.8-24.1 9.9-1.8 1.2-2.9 1.5-4.3.4-.3-.2-.5-.3-.7-.4H97C91.7 8.5 86.2 9 81.4 9.5c-2.4.2-4.6 1.2-6.8 2.1l-1 .4c-.7.3-.9.3-1.5 0l-1.9-1.1c-2.9-1.7-6-3.5-9.1-4.9-9-4.2-16.2-6-23.5-5.7-7.6.1-13.3 4.3-15.5 11.3-.4 1.3-.6 2.7-.9 4-.1.4-.1.7-.2 1.1H9.6c-6.1 0-9.6 3.5-9.6 9.6V56c0 5.4 3.7 9 9.1 9h4.4v76.3c0 2.5.8 4.6 2.2 6 1.4 1.4 3.3 2.1 5.6 2.1H149.6c.8 0 1.6-.1 2.3 0 2.1.1 4-.5 5.5-1.8 1.6-1.5 2.5-3.8 2.5-6.3V65.1h3.8c6.2 0 9.6-3.4 9.6-9.5V26.4zM165 55.9c0 .4-.1.6-.1.6s-.2.1-.6.1h-15.5c2.5-5 2-10 1.2-13.8-1.1-5.5-.9-11.3.7-17.7h13.4c.6 0 .8.1.8.1s.1.1.1.6v30.1zM100.9 33c-.1.6-.1 1.1-.2 1.7-.2 1.9-.4 3.8-1.1 5.4-1.9 5.1-6.3 6.3-9.6 6.4-3 .1-5.7 0-8.2-.2-5-.4-9-4.8-9.2-9.8-.1-3.1-.1-6 0-8.8.2-5.6 4.6-9.7 10.6-10.1.8 0 1.7-.1 2.5-.1 1.9 0 3.6.1 5.2.2 5.6.4 9.5 4.7 9.7 10.8V33h.3zM60 78c-1.8-1.4-4-2.1-6.5-2.1-.9 0-1.8.1-2.7.3-1 .2-2.2.1-3.4.1H47c1.1-2.5 2.8-4.6 4.6-6.9 5.8-7.1 12.3-13.1 19.4-17.8.7-.4.9-.4 1.5 0 2.7 1.9 5.6 3 8.7 3.2.2 0 .4 0 .6.1-.3.7-.6 1.4-.9 2-1 2.1-1.9 4.3-2.9 6.3-3.6 7.2-7.3 14.5-10.9 21.5-.9 1.8-1.8 3.6-2.7 5.3-.2-1.2-.3-2.4-.4-3.7-.2-3.5-1.6-6.4-4-8.3zM44 65.2c-.9 1.2-1.9 2.5-2.6 3.9-1.1 2-2.5 4.6-3.3 7.4-.5 1.7-.3 3.5.6 4.9.9 1.4 2.3 2.4 4.1 2.7 3.2.5 6.3.6 9.3.4 2.7-.2 3.3.2 3.5 2.8.3 3.3.9 6.9 1.7 11.1.3 1.3.9 2.6 2.1 4.1.9 1.1 2.2 1.8 3.6 2 1.5.1 2.9-.4 4.1-1.4l.1-.1v38H22V65.1l22 .1c.1 0 .1 0 0 0zm31.7 22.5c0-1 .3-2.2.8-3.2 2.8-5.7 5.8-11.4 8.6-17l1.6-3.2 1.6 3c3 5.8 6.1 11.7 9.1 17.5.2.5.4 1 .4 1.4v54.5H75.6v-11.2c0-13.6 0-27.8.1-41.8zm50.6-11.3c-1.1 0-2.1.1-3.1-.1-4.1-.7-7.2-.2-9.5 1.6s-3.7 4.7-4.1 8.9l-.1 1.1c-.1.7-.1 1.4-.2 2-2.3-5.4-5.1-10.6-7.8-15.7-3.3-6.3-6.8-12.7-9.4-19.5 3.7-.4 6.8-1.6 9.4-3.6 10.7 6.5 19.3 14.9 25.4 25.2-.3.1-.5.1-.6.1zm-20.1 26.4c1.4 1.2 3.1 1.8 4.7 1.6 1.8-.3 3.2-1.4 4-3.2 1.1-2.5 1.7-5.3 2.3-8l.2-1c.3-1.4.4-2.8.5-4.1.1-.8.1-1.5.2-2.3.1-1 .5-1.6 2.1-1.5.6 0 1.3.1 1.9.1 1.4.1 2.9.2 4.4.2 1.1 0 2.3-.1 3.7-.4 2-.5 3.6-1.5 4.5-3 .9-1.6 1.1-3.5.5-5.7-1.1-3.9-3.4-7.1-5.7-10.2l-.2-.3h22v75.8h-45.1v-38zM66.1 44.3c-.7.5-1.4.9-2.2 1.4-2.1 1.4-4.2 2.8-6.4 4-5.5 3-10.2 4.8-14.8 5.8-3.3.6-5.9.6-8.2-.1-2.8-.9-4.4-3-4.3-5.7.1-2.9.4-6.1 1-9.5.7-4.8 0-9.4-.9-14.4-.6-3.1-1.2-6.6-.6-10.1.8-4.7 3.6-7.2 7.9-7.2h.5c3.2.1 6.7.6 11 1.6 5.2 1.2 13.5 5.3 17.8 8.3-3.4 7.2-3.7 17.9-.8 25.9zm75.6-16.9-.3 1.4c-.7 4-.8 8.3-.1 13.4.4 2.8.5 5.8.5 8.8 0 1.8-1.1 3.2-3.4 4.2-3.1 1.4-6.2 1-10 .1-7.2-1.7-13.7-4.9-19.3-9.4-.6-.5-1.2-.9-1.8-1.3-.1-.1-.2-.1-.2-.2 3.3-8.8 2.9-18.8-1.1-26.5.6-.3 1.2-.7 1.8-1 1.9-1.1 3.9-2.2 5.9-3.1 3.8-1.5 8.8-3.4 14-4.7 2.4-.6 5.2-.7 8.5-.2 4.5.6 5.9 4.2 6.3 7.1.6 3.8-.1 7.5-.8 11.4zM8.4 26.2c0-.7.1-.9.1-.9s.2-.1.8-.1h.1c3 .1 6 0 9.2 0h3c.1.5.2 1.1.3 1.6l.9 5.4c.6 2.9.1 5.8-.3 8.8-.2 1-.3 2-.4 3-.5 4.3-.8 8.5 1.4 12.6H8.9c-.3 0-.4 0-.4-1V38.4c-.1-4.1-.1-8.2-.1-12.2z"/></svg>